<mxfile host="app.diagrams.net" modified="2024-01-10T03:59:50.615Z" agent="Mozilla/5.0 (Windows NT 10.0; Win64; x64; rv:121.0) Gecko/20100101 Firefox/121.0" etag="b4-Vw71mjjOCOaBpLWR1" version="22.1.18" type="github">
  <diagram name="Page-1" id="d66fe2ae-3e9f-cf2f-6d29-e24063ad5d60">
    <mxGraphModel dx="6487" dy="1613" grid="1" gridSize="10" guides="1" tooltips="1" connect="1" arrows="1" fold="1" page="1" pageScale="1" pageWidth="1100" pageHeight="850" background="none" math="0" shadow="0">
      <root>
        <mxCell id="0" />
        <mxCell id="1" parent="0" />
        <mxCell id="5fc5e51f7ca293a3-131" value="workstation" style="fontColor=#0066CC;verticalAlign=top;verticalLabelPosition=bottom;labelPosition=center;align=center;html=1;fillColor=#CCCCCC;strokeColor=#6881B3;gradientColor=none;gradientDirection=north;strokeWidth=2;shape=mxgraph.networks.pc;rounded=1;shadow=0;comic=0;labelBackgroundColor=#ffffff;" parent="1" vertex="1">
          <mxGeometry x="-1255" y="1210" width="100" height="70" as="geometry" />
        </mxCell>
        <mxCell id="Do9m0CjDBRWaX3igN-C1-1" value="" style="html=1;outlineConnect=0;fillColor=#CCCCCC;strokeColor=#6881B3;gradientColor=none;gradientDirection=north;strokeWidth=2;shape=mxgraph.networks.cloud;fontColor=#ffffff;fontSize=17;" parent="1" vertex="1">
          <mxGeometry x="-2740" y="110" width="1770" height="700" as="geometry" />
        </mxCell>
        <mxCell id="Do9m0CjDBRWaX3igN-C1-4" value="" style="edgeStyle=orthogonalEdgeStyle;rounded=0;orthogonalLoop=1;jettySize=auto;html=1;shape=link;" parent="1" source="5fc5e51f7ca293a3-93" target="Do9m0CjDBRWaX3igN-C1-3" edge="1">
          <mxGeometry relative="1" as="geometry" />
        </mxCell>
        <mxCell id="5fc5e51f7ca293a3-93" value="VPN / 158.160.142.130" style="fontColor=#0066CC;verticalAlign=top;verticalLabelPosition=bottom;labelPosition=center;align=center;html=1;fillColor=#CCCCCC;strokeColor=#6881B3;gradientColor=none;gradientDirection=north;strokeWidth=2;shape=mxgraph.networks.server;rounded=1;shadow=0;comic=0;labelBackgroundColor=#ffffff;direction=east;fontSize=17;" parent="1" vertex="1">
          <mxGeometry x="-1560" y="560" width="90" height="100" as="geometry" />
        </mxCell>
        <mxCell id="5fc5e51f7ca293a3-141" style="edgeStyle=none;html=1;labelBackgroundColor=none;endArrow=none;strokeWidth=2;fontFamily=Verdana;fontSize=28;fontColor=#0066CC;rounded=0;strokeColor=#6881B3;entryX=0.122;entryY=-0.011;entryDx=0;entryDy=0;entryPerimeter=0;" parent="1" source="5fc5e51f7ca293a3-93" target="5fc5e51f7ca293a3-131" edge="1">
          <mxGeometry relative="1" as="geometry">
            <mxPoint x="-1533" y="1039" as="targetPoint" />
          </mxGeometry>
        </mxCell>
        <mxCell id="EWH19sQ6xZNxHDQgsqTo-6" value="VPN " style="edgeLabel;html=1;align=center;verticalAlign=middle;resizable=0;points=[];fontSize=17;" vertex="1" connectable="0" parent="5fc5e51f7ca293a3-141">
          <mxGeometry x="0.39" y="-2" relative="1" as="geometry">
            <mxPoint x="1" as="offset" />
          </mxGeometry>
        </mxCell>
        <mxCell id="Do9m0CjDBRWaX3igN-C1-3" value="UC /&amp;nbsp;158.160.131.22 " style="fontColor=#0066CC;verticalAlign=top;verticalLabelPosition=bottom;labelPosition=center;align=center;html=1;fillColor=#CCCCCC;strokeColor=#6881B3;gradientColor=none;gradientDirection=north;strokeWidth=2;shape=mxgraph.networks.server;rounded=1;shadow=0;comic=0;labelBackgroundColor=#ffffff;fontSize=17;" parent="1" vertex="1">
          <mxGeometry x="-1870" y="560" width="90" height="100" as="geometry" />
        </mxCell>
        <mxCell id="Do9m0CjDBRWaX3igN-C1-6" value="workstation" style="fontColor=#0066CC;verticalAlign=top;verticalLabelPosition=bottom;labelPosition=center;align=center;html=1;fillColor=#CCCCCC;strokeColor=#6881B3;gradientColor=none;gradientDirection=north;strokeWidth=2;shape=mxgraph.networks.pc;rounded=1;shadow=0;comic=0;labelBackgroundColor=#ffffff;" parent="1" vertex="1">
          <mxGeometry x="-1410" y="1205" width="100" height="70" as="geometry" />
        </mxCell>
        <mxCell id="Do9m0CjDBRWaX3igN-C1-7" style="edgeStyle=orthogonalEdgeStyle;rounded=0;orthogonalLoop=1;jettySize=auto;html=1;entryX=0.807;entryY=1.062;entryDx=0;entryDy=0;entryPerimeter=0;" parent="1" source="Do9m0CjDBRWaX3igN-C1-6" target="5fc5e51f7ca293a3-93" edge="1">
          <mxGeometry relative="1" as="geometry" />
        </mxCell>
        <mxCell id="EWH19sQ6xZNxHDQgsqTo-7" value="VPN" style="edgeLabel;html=1;align=center;verticalAlign=middle;resizable=0;points=[];fontSize=17;" vertex="1" connectable="0" parent="Do9m0CjDBRWaX3igN-C1-7">
          <mxGeometry x="-0.1726" relative="1" as="geometry">
            <mxPoint as="offset" />
          </mxGeometry>
        </mxCell>
        <mxCell id="Do9m0CjDBRWaX3igN-C1-10" style="edgeStyle=orthogonalEdgeStyle;rounded=0;orthogonalLoop=1;jettySize=auto;html=1;" parent="1" source="Do9m0CjDBRWaX3igN-C1-8" target="5fc5e51f7ca293a3-93" edge="1">
          <mxGeometry relative="1" as="geometry" />
        </mxCell>
        <mxCell id="EWH19sQ6xZNxHDQgsqTo-5" style="edgeStyle=orthogonalEdgeStyle;rounded=0;orthogonalLoop=1;jettySize=auto;html=1;" edge="1" parent="1" source="Do9m0CjDBRWaX3igN-C1-8" target="EWH19sQ6xZNxHDQgsqTo-1">
          <mxGeometry relative="1" as="geometry" />
        </mxCell>
        <mxCell id="EWH19sQ6xZNxHDQgsqTo-9" value="SSH, 9090" style="edgeLabel;html=1;align=center;verticalAlign=middle;resizable=0;points=[];fontSize=17;" vertex="1" connectable="0" parent="EWH19sQ6xZNxHDQgsqTo-5">
          <mxGeometry x="0.0034" y="1" relative="1" as="geometry">
            <mxPoint as="offset" />
          </mxGeometry>
        </mxCell>
        <mxCell id="Do9m0CjDBRWaX3igN-C1-8" value="Admin" style="fontColor=#0066CC;verticalAlign=top;verticalLabelPosition=bottom;labelPosition=center;align=center;html=1;outlineConnect=0;fillColor=#CCCCCC;strokeColor=#6881B3;gradientColor=none;gradientDirection=north;strokeWidth=2;shape=mxgraph.networks.pc;fontSize=18;" parent="1" vertex="1">
          <mxGeometry x="-2165" y="930" width="100" height="70" as="geometry" />
        </mxCell>
        <mxCell id="Do9m0CjDBRWaX3igN-C1-9" style="edgeStyle=orthogonalEdgeStyle;rounded=0;orthogonalLoop=1;jettySize=auto;html=1;entryX=0.149;entryY=1;entryDx=0;entryDy=0;entryPerimeter=0;" parent="1" source="Do9m0CjDBRWaX3igN-C1-8" target="Do9m0CjDBRWaX3igN-C1-3" edge="1">
          <mxGeometry relative="1" as="geometry">
            <mxPoint x="-2010" y="970" as="sourcePoint" />
          </mxGeometry>
        </mxCell>
        <mxCell id="Do9m0CjDBRWaX3igN-C1-11" value="&lt;font style=&quot;font-size: 15px;&quot;&gt;SSH&lt;/font&gt;" style="edgeLabel;html=1;align=center;verticalAlign=middle;resizable=0;points=[];" parent="Do9m0CjDBRWaX3igN-C1-9" vertex="1" connectable="0">
          <mxGeometry x="-0.5574" y="2" relative="1" as="geometry">
            <mxPoint as="offset" />
          </mxGeometry>
        </mxCell>
        <mxCell id="EWH19sQ6xZNxHDQgsqTo-3" value="" style="edgeStyle=orthogonalEdgeStyle;rounded=0;orthogonalLoop=1;jettySize=auto;html=1;entryX=0.5;entryY=0;entryDx=0;entryDy=0;entryPerimeter=0;" edge="1" parent="1" source="EWH19sQ6xZNxHDQgsqTo-1" target="Do9m0CjDBRWaX3igN-C1-3">
          <mxGeometry relative="1" as="geometry">
            <mxPoint x="-2115" y="560" as="targetPoint" />
            <Array as="points">
              <mxPoint x="-1825" y="430" />
            </Array>
          </mxGeometry>
        </mxCell>
        <mxCell id="EWH19sQ6xZNxHDQgsqTo-11" value="9100" style="edgeLabel;html=1;align=center;verticalAlign=middle;resizable=0;points=[];fontSize=17;" vertex="1" connectable="0" parent="EWH19sQ6xZNxHDQgsqTo-3">
          <mxGeometry x="0.6417" y="-1" relative="1" as="geometry">
            <mxPoint as="offset" />
          </mxGeometry>
        </mxCell>
        <mxCell id="EWH19sQ6xZNxHDQgsqTo-1" value="Prom /&amp;nbsp;158.160.143.9 " style="fontColor=#0066CC;verticalAlign=top;verticalLabelPosition=bottom;labelPosition=center;align=center;html=1;fillColor=#CCCCCC;strokeColor=#6881B3;gradientColor=none;gradientDirection=north;strokeWidth=2;shape=mxgraph.networks.server;rounded=1;shadow=0;comic=0;labelBackgroundColor=#ffffff;fontSize=17;" vertex="1" parent="1">
          <mxGeometry x="-2160" y="380" width="90" height="100" as="geometry" />
        </mxCell>
        <mxCell id="EWH19sQ6xZNxHDQgsqTo-4" style="edgeStyle=orthogonalEdgeStyle;rounded=0;orthogonalLoop=1;jettySize=auto;html=1;entryX=0.5;entryY=0;entryDx=0;entryDy=0;entryPerimeter=0;" edge="1" parent="1" source="EWH19sQ6xZNxHDQgsqTo-1" target="5fc5e51f7ca293a3-93">
          <mxGeometry relative="1" as="geometry" />
        </mxCell>
        <mxCell id="EWH19sQ6xZNxHDQgsqTo-10" value="9100, 9176" style="edgeLabel;html=1;align=center;verticalAlign=middle;resizable=0;points=[];fontSize=17;" vertex="1" connectable="0" parent="EWH19sQ6xZNxHDQgsqTo-4">
          <mxGeometry x="0.2241" y="-3" relative="1" as="geometry">
            <mxPoint as="offset" />
          </mxGeometry>
        </mxCell>
      </root>
    </mxGraphModel>
  </diagram>
</mxfile>
